<?xml version="1.0" encoding="UTF-8"?>
<svg id="Layer_1" data-name="Layer 1" xmlns="http://www.w3.org/2000/svg" version="1.1" viewBox="0 0 1080 1080">
  <defs>
    <style>
      .cls-1 {
        stroke: #000;
        stroke-miterlimit: 10;
      }

      .cls-1, .cls-2 {
        fill: #000;
      }

      .cls-2 {
        stroke-width: 0px;
      }
    </style>
  </defs>
  <g>
    <path class="cls-2" d="M96.94,841.48c-4.47-1.18-8.62-2.52-12.44-4.04-5.56-2.21-8.27-8.51-6-14.05l.62-1.5c2.16-5.28,8.1-8,13.47-6.05,2.67.97,5.59,1.87,8.76,2.7,7.37,1.94,13.99,2.91,19.86,2.91,6.76,0,12.22-1.02,16.37-3.07,4.16-2.05,6.23-4.9,6.23-8.56,0-3.43-1.61-5.98-4.82-7.65-3.22-1.66-8.54-3.49-15.96-5.49l-4.66-1.33c-10.53-2.99-18.76-6.2-24.69-9.64-5.93-3.43-10.17-7.37-12.72-11.8-2.55-4.43-3.82-9.86-3.82-16.29,0-7.31,2.08-13.69,6.23-19.12,4.16-5.43,9.86-9.61,17.12-12.55,7.26-2.94,15.49-4.41,24.69-4.41s18.33,1.43,28.39,4.3c6.08,1.73,9.42,8.26,7.17,14.17l-.74,1.95c-1.95,5.11-7.44,7.97-12.72,6.55-8.32-2.24-15.8-3.36-22.43-3.36s-12.19,1.11-16.29,3.32c-4.1,2.22-6.15,5.26-6.15,9.14,0,2.77.83,4.96,2.49,6.57,1.66,1.61,4.1,2.97,7.31,4.07,3.21,1.11,8.25,2.49,15.13,4.16,15.4,3.77,26.18,8.45,32.33,14.05,6.15,5.6,9.23,12.61,9.23,21.03,0,7.65-1.99,14.3-5.98,19.95-3.99,5.65-9.53,9.97-16.62,12.97-7.09,2.99-15.18,4.49-24.27,4.49-8.09,0-16.46-1.14-25.1-3.41Z"/>
    <path class="cls-2" d="M202.5,747.31h-15.95c-5.89,0-10.68-4.75-10.72-10.64v-1.66c-.05-5.95,4.76-10.8,10.71-10.8h65.25c5.92,0,10.72,4.8,10.72,10.72v1.66c0,5.92-4.8,10.72-10.72,10.72h-16.21c-2.2,0-3.99,1.79-3.99,3.99v80.54c0,5.92-4.8,10.72-10.72,10.72h-3.66c-5.92,0-10.72-4.8-10.72-10.72v-80.54c0-2.2-1.79-3.99-3.99-3.99Z"/>
    <path class="cls-2" d="M396.83,747.31h-15.95c-5.89,0-10.68-4.75-10.72-10.64v-1.66c-.05-5.95,4.76-10.8,10.71-10.8h65.25c5.92,0,10.72,4.8,10.72,10.72v1.66c0,5.92-4.8,10.72-10.72,10.72h-16.21c-2.2,0-3.99,1.79-3.99,3.99v80.54c0,5.92-4.8,10.72-10.72,10.72h-3.66c-5.92,0-10.72-4.8-10.72-10.72v-80.54c0-2.2-1.79-3.99-3.99-3.99Z"/>
    <path class="cls-2" d="M486.26,841.48c-4.47-1.18-8.62-2.52-12.44-4.04-5.56-2.21-8.27-8.51-6-14.05l.62-1.5c2.16-5.28,8.1-8,13.47-6.05,2.67.97,5.59,1.87,8.76,2.7,7.37,1.94,13.99,2.91,19.86,2.91,6.76,0,12.22-1.02,16.37-3.07,4.16-2.05,6.23-4.9,6.23-8.56,0-3.43-1.61-5.98-4.82-7.65-3.22-1.66-8.54-3.49-15.96-5.49l-4.66-1.33c-10.53-2.99-18.76-6.2-24.69-9.64-5.93-3.43-10.17-7.37-12.72-11.8-2.55-4.43-3.82-9.86-3.82-16.29,0-7.31,2.08-13.69,6.23-19.12,4.16-5.43,9.86-9.61,17.12-12.55,7.26-2.94,15.49-4.41,24.69-4.41s18.33,1.43,28.39,4.3c6.08,1.73,9.42,8.26,7.17,14.17l-.74,1.95c-1.95,5.11-7.44,7.97-12.72,6.55-8.32-2.24-15.8-3.36-22.43-3.36s-12.19,1.11-16.29,3.32c-4.1,2.22-6.15,5.26-6.15,9.14,0,2.77.83,4.96,2.49,6.57,1.66,1.61,4.1,2.97,7.31,4.07,3.21,1.11,8.25,2.49,15.13,4.16,15.4,3.77,26.18,8.45,32.33,14.05,6.15,5.6,9.23,12.61,9.23,21.03,0,7.65-2,14.3-5.98,19.95s-9.53,9.97-16.62,12.97c-7.09,2.99-15.18,4.49-24.27,4.49-8.09,0-16.46-1.14-25.1-3.41Z"/>
    <path class="cls-2" d="M652,724.2c6.2,0,11.97,1.53,17.29,4.57,5.32,3.05,9.53,7.23,12.63,12.55,3.1,5.32,4.66,11.08,4.66,17.29,0,4.65-.97,8.84-2.91,12.55-1.94,3.71-4.57,6.73-7.9,9.06,4.88,2.33,8.73,5.71,11.55,10.14,2.83,4.43,4.24,9.64,4.24,15.63,0,6.65-1.66,12.77-4.99,18.37-3.33,5.6-7.79,10.03-13.38,13.3-5.6,3.27-11.72,4.9-18.37,4.9h-40.05c-6.89,0-12.48-5.59-12.48-12.48v-93.4c0-6.89,5.59-12.48,12.48-12.48h37.22ZM657.99,766.84c2.22-2.27,3.32-5.01,3.32-8.23s-1.14-5.76-3.41-7.98c-2.27-2.22-4.96-3.32-8.06-3.32h-22.28v22.94h22.28c3.21,0,5.93-1.14,8.15-3.41ZM662.56,815.05c2.49-2.49,3.74-5.51,3.74-9.06,0-3.33-1.25-6.26-3.74-8.81-2.49-2.55-5.52-3.82-9.06-3.82h-25.93v25.43h25.93c3.55,0,6.57-1.25,9.06-3.74Z"/>
    <path class="cls-2" d="M783.64,835.62l-4.85-13.43c-.27-.75-.98-1.24-1.77-1.24h-43.57c-.79,0-1.5.5-1.77,1.24l-4.85,13.43c-1.51,4.17-5.46,6.94-9.89,6.94h-1.77c-8.48,0-14.39-8.43-11.5-16.4l34.02-93.89c1.75-4.84,6.35-8.07,11.5-8.07h11.93c5.15,0,9.75,3.22,11.5,8.07l34.02,93.89c2.89,7.98-3.02,16.4-11.5,16.4h-1.6c-4.43,0-8.39-2.78-9.89-6.94ZM743.13,797.68h24.05c1.3,0,2.21-1.29,1.77-2.52l-11.96-33.15c-.6-1.66-2.94-1.66-3.54,0l-12.09,33.15c-.45,1.23.46,2.53,1.77,2.53Z"/>
    <path class="cls-2" d="M346.77,835.62l-4.85-13.43c-.27-.75-.98-1.24-1.77-1.24h-43.57c-.79,0-1.5.5-1.77,1.24l-4.85,13.43c-1.51,4.17-5.46,6.94-9.89,6.94h-1.77c-8.48,0-14.39-8.43-11.5-16.4l34.02-93.89c1.75-4.84,6.35-8.07,11.5-8.07h11.93c5.15,0,9.75,3.22,11.5,8.07l34.02,93.89c2.89,7.98-3.02,16.4-11.5,16.4h-1.6c-4.43,0-8.39-2.78-9.89-6.94ZM306.26,797.68h24.05c1.3,0,2.21-1.29,1.77-2.52l-11.96-33.15c-.6-1.66-2.94-1.66-3.54,0l-12.09,33.15c-.45,1.23.46,2.53,1.77,2.53Z"/>
    <path class="cls-2" d="M840.51,841.48c-4.47-1.18-8.62-2.52-12.44-4.04-5.56-2.21-8.27-8.51-6-14.05l.62-1.5c2.16-5.28,8.1-8,13.47-6.05,2.67.97,5.59,1.87,8.76,2.7,7.37,1.94,13.99,2.91,19.86,2.91,6.76,0,12.22-1.02,16.37-3.07,4.16-2.05,6.23-4.9,6.23-8.56,0-3.43-1.61-5.98-4.82-7.65-3.22-1.66-8.54-3.49-15.96-5.49l-4.65-1.33c-10.53-2.99-18.76-6.2-24.69-9.64-5.93-3.43-10.17-7.37-12.72-11.8-2.55-4.43-3.82-9.86-3.82-16.29,0-7.31,2.08-13.69,6.23-19.12,4.16-5.43,9.86-9.61,17.12-12.55,7.26-2.94,15.49-4.41,24.69-4.41s18.33,1.43,28.39,4.3c6.08,1.73,9.42,8.26,7.17,14.17l-.74,1.95c-1.95,5.11-7.44,7.97-12.72,6.55-8.32-2.24-15.8-3.36-22.43-3.36s-12.19,1.11-16.29,3.32c-4.1,2.22-6.15,5.26-6.15,9.14,0,2.77.83,4.96,2.49,6.57,1.66,1.61,4.1,2.97,7.31,4.07,3.21,1.11,8.26,2.49,15.13,4.16,15.4,3.77,26.18,8.45,32.33,14.05,6.15,5.6,9.23,12.61,9.23,21.03,0,7.65-2,14.3-5.98,19.95s-9.53,9.97-16.62,12.97c-7.09,2.99-15.18,4.49-24.27,4.49-8.09,0-16.46-1.14-25.1-3.41Z"/>
    <path class="cls-2" d="M937.18,724.2h59.26c5.89,0,10.68,4.75,10.72,10.65v1.8c.06,5.96-4.78,10.82-10.74,10.8l-33.94-.1c-5.93-.02-10.75,4.79-10.75,10.72v3.96c0,5.92,4.8,10.72,10.72,10.72h27.76c5.92,0,10.72,4.8,10.72,10.72h0c0,5.92-4.8,10.72-10.72,10.72h-27.76c-5.92,0-10.72,4.8-10.72,10.72v3.82c0,5.92,4.8,10.72,10.72,10.72h33.91c5.92,0,10.72,4.8,10.72,10.72v1.66c0,5.92-4.8,10.72-10.72,10.72h-59.18c-5.92,0-10.72-4.8-10.72-10.72v-96.92c0-5.92,4.8-10.72,10.72-10.72Z"/>
  </g>
  <g>
    <path class="cls-1" d="M408.08,351.95v136.12c-.51.57-1.03,1.14-1.54,1.71-14.02,15.55-27.2,31.82-41.36,47.24-18.38,20.03-37.03,39.86-56.21,59.17-18.48,18.6-39.63,34.02-62.9,46.91-20.45,11.33-41.91,20.28-64.6,25.83-17.81,4.36-36.17,7.07-54.44,9.11-19.15,2.13-38.43,3.14-57.69,4.55v-245.62c0-10.82,11.02-19.6,24.59-19.6h88.73c13.56,0,24.58,8.78,24.58,19.6v113.64h62.98v-198.66c0-10.83,10.99-19.6,24.58-19.6h88.71c13.59,0,24.58,8.77,24.58,19.6Z"/>
    <path class="cls-1" d="M608.94,254.71v177.04c-.88-.76-1.79-1.51-2.68-2.25-14.98-12.36-31.03-22.61-50.39-27.77-16.89-4.51-33.28-3.33-49.26,2.76-12.97,4.95-24.78,11.76-35.55,19.91v-169.69c0-10.83,11.02-19.6,24.58-19.6h88.73c13.58,0,24.58,8.77,24.58,19.6Z"/>
    <path class="cls-1" d="M1010.66,436.96v245.64c-3.5-.15-6.98-.32-10.46-.59-22.03-1.62-44.18-2.5-66.03-5.35-18.38-2.4-36.72-6.19-54.58-11.03-42.78-11.59-79.1-34.46-110.95-63.58-18.94-17.32-36.26-36.35-53.61-55.21-14.78-16.07-29-32.65-43.1-49.29v-145.6c0-10.83,10.99-19.6,24.58-19.6h88.73c13.56,0,24.58,8.77,24.58,19.6v198.66h62.96v-113.64c0-10.82,11.02-19.6,24.58-19.6h88.73c13.59,0,24.58,8.78,24.58,19.6Z"/>
  </g>
</svg>