<?xml version="1.0" encoding="UTF-8"?>
<svg id="Layer_1" data-name="Layer 1" xmlns="http://www.w3.org/2000/svg" baseProfile="tiny" version="1.2" viewBox="0 0 1080 1080">
  <path d="M408.08,351.95v136.12c-.51.57-1.03,1.14-1.54,1.71-14.02,15.55-27.2,31.82-41.36,47.24-18.38,20.03-37.03,39.86-56.21,59.17-18.48,18.6-39.63,34.02-62.9,46.91-20.45,11.33-41.91,20.28-64.6,25.83-17.81,4.36-36.17,7.07-54.44,9.11-19.15,2.13-38.43,3.14-57.69,4.55v-245.62c0-10.82,11.02-19.6,24.59-19.6h88.73c13.56,0,24.58,8.78,24.58,19.6v113.64h62.98v-198.66c0-10.83,10.99-19.6,24.58-19.6h88.71c13.59,0,24.58,8.77,24.58,19.6Z" fill="#000" stroke="#000" stroke-miterlimit="10"/>
  <path d="M608.94,254.71v177.04c-.88-.76-1.79-1.51-2.68-2.25-14.98-12.36-31.03-22.61-50.39-27.77-16.89-4.51-33.28-3.33-49.26,2.76-12.97,4.95-24.78,11.76-35.55,19.91v-169.69c0-10.83,11.02-19.6,24.58-19.6h88.73c13.58,0,24.58,8.77,24.58,19.6Z" fill="#eeeee" stroke="#000" stroke-miterlimit="10"/>
  <path d="M1010.66,436.96v245.64c-3.5-.15-6.98-.32-10.46-.59-22.03-1.62-44.18-2.5-66.03-5.35-18.38-2.4-36.72-6.19-54.58-11.03-42.78-11.59-79.1-34.46-110.95-63.58-18.94-17.32-36.26-36.35-53.61-55.21-14.78-16.07-29-32.65-43.1-49.29v-145.6c0-10.83,10.99-19.6,24.58-19.6h88.73c13.56,0,24.58,8.77,24.58,19.6v198.66h62.96v-113.64c0-10.82,11.02-19.6,24.58-19.6h88.73c13.59,0,24.58,8.78,24.58,19.6Z" fill="#000" stroke="#000" stroke-miterlimit="10"/>
</svg>